<svg xmlns="http://www.w3.org/2000/svg" xmlns:xlink="http://www.w3.org/1999/xlink" version="1.1" x="0px" y="0px" viewBox="0 0 100 125" style="enable-background:new 0 0 100 100;" xml:space="preserve"><path d="M87.9,47.2L21,18.6c-0.4-0.2-0.8-0.2-1.2-0.2c-1.6,0-3,1.3-3,3v18.1c0,1.4,1,2.6,2.4,2.9l8.1,1.8c3.5,0.8,3,5.9-0.6,5.9  h-9.8h-3.6c-3.1,0-4.2,4.2-1.4,5.7l3.3,1.7c1,0.5,1.6,1.5,1.6,2.7v18.6c0,1.7,1.4,3,3,3c0.4,0,0.8-0.1,1.2-0.2l66.9-28.7  C90.4,51.7,90.4,48.3,87.9,47.2z M87.2,50.9L20.2,79.6c-0.1,0.1-0.3,0.1-0.4,0.1c-0.5,0-1-0.4-1-1V60c0-1.9-1-3.6-2.7-4.4l-3.3-1.7  c-0.6-0.3-0.6-0.8-0.5-1.1c0.1-0.3,0.3-0.8,1-0.8h3.6h9.8c2.6,0,4.7-1.8,5-4.5s-1.3-4.9-3.9-5.4l-8.1-1.8c-0.5-0.1-0.8-0.5-0.8-1  V21.3c0-0.6,0.5-1,1-1c0.1,0,0.3,0,0.4,0.1l66.9,28.7c0.5,0.2,0.6,0.7,0.6,0.9C87.8,50.2,87.7,50.7,87.2,50.9z"/></svg>
